<mxfile host="app.diagrams.net" agent="Mozilla/5.0 (Windows NT 10.0; Win64; x64) AppleWebKit/537.36 (KHTML, like Gecko) Chrome/129.0.0.0 Safari/537.36" version="24.7.17">
  <diagram name="Страница — 1" id="bv03ICq6Dp4Je9cSqZLH">
    <mxGraphModel dx="1434" dy="746" grid="0" gridSize="10" guides="1" tooltips="1" connect="1" arrows="1" fold="1" page="1" pageScale="1" pageWidth="1169" pageHeight="1654" math="0" shadow="0">
      <root>
        <mxCell id="0" />
        <mxCell id="1" parent="0" />
        <mxCell id="wqrPw1n5rwPjWdhEKw8x-1" value="Actor" style="shape=umlActor;verticalLabelPosition=bottom;verticalAlign=top;html=1;outlineConnect=0;labelPosition=center;align=center;textOpacity=0;" vertex="1" parent="1">
          <mxGeometry x="256" y="213" width="30" height="60" as="geometry" />
        </mxCell>
        <mxCell id="wqrPw1n5rwPjWdhEKw8x-2" value="Actor" style="shape=umlActor;verticalLabelPosition=bottom;verticalAlign=top;html=1;outlineConnect=0;textOpacity=0;" vertex="1" parent="1">
          <mxGeometry x="260" y="350" width="30" height="60" as="geometry" />
        </mxCell>
        <mxCell id="wqrPw1n5rwPjWdhEKw8x-7" value="" style="rounded=0;whiteSpace=wrap;html=1;dashed=1;strokeWidth=2;" vertex="1" parent="1">
          <mxGeometry x="390" y="170" width="520" height="320" as="geometry" />
        </mxCell>
        <mxCell id="wqrPw1n5rwPjWdhEKw8x-12" value="web-приложение" style="rounded=0;whiteSpace=wrap;html=1;" vertex="1" parent="1">
          <mxGeometry x="766" y="191" width="120" height="60" as="geometry" />
        </mxCell>
        <mxCell id="wqrPw1n5rwPjWdhEKw8x-13" value="событие" style="rounded=0;whiteSpace=wrap;html=1;" vertex="1" parent="1">
          <mxGeometry x="566" y="238" width="120" height="60" as="geometry" />
        </mxCell>
        <mxCell id="wqrPw1n5rwPjWdhEKw8x-14" value="мероприятие" style="rounded=0;whiteSpace=wrap;html=1;" vertex="1" parent="1">
          <mxGeometry x="568" y="356" width="120" height="60" as="geometry" />
        </mxCell>
        <mxCell id="wqrPw1n5rwPjWdhEKw8x-15" value="Администратор" style="text;html=1;align=center;verticalAlign=middle;whiteSpace=wrap;rounded=0;" vertex="1" parent="1">
          <mxGeometry x="243" y="276" width="60" height="30" as="geometry" />
        </mxCell>
        <mxCell id="wqrPw1n5rwPjWdhEKw8x-17" value="Волонтер" style="text;html=1;align=center;verticalAlign=middle;whiteSpace=wrap;rounded=0;" vertex="1" parent="1">
          <mxGeometry x="241" y="421" width="60" height="30" as="geometry" />
        </mxCell>
        <mxCell id="wqrPw1n5rwPjWdhEKw8x-18" value="" style="endArrow=none;html=1;rounded=0;entryX=0.025;entryY=0.367;entryDx=0;entryDy=0;entryPerimeter=0;" edge="1" parent="1" target="wqrPw1n5rwPjWdhEKw8x-12">
          <mxGeometry width="50" height="50" relative="1" as="geometry">
            <mxPoint x="628" y="236" as="sourcePoint" />
            <mxPoint x="671" y="188" as="targetPoint" />
            <Array as="points">
              <mxPoint x="628" y="211" />
            </Array>
          </mxGeometry>
        </mxCell>
        <mxCell id="wqrPw1n5rwPjWdhEKw8x-20" value="Отображается" style="text;html=1;align=center;verticalAlign=middle;whiteSpace=wrap;rounded=0;" vertex="1" parent="1">
          <mxGeometry x="662" y="183" width="60" height="30" as="geometry" />
        </mxCell>
        <mxCell id="wqrPw1n5rwPjWdhEKw8x-21" value="" style="endArrow=none;html=1;rounded=0;exitX=0.5;exitY=0;exitDx=0;exitDy=0;" edge="1" parent="1" source="wqrPw1n5rwPjWdhEKw8x-14">
          <mxGeometry width="50" height="50" relative="1" as="geometry">
            <mxPoint x="651" y="333" as="sourcePoint" />
            <mxPoint x="628" y="298" as="targetPoint" />
          </mxGeometry>
        </mxCell>
        <mxCell id="wqrPw1n5rwPjWdhEKw8x-24" value="Имеет" style="text;html=1;align=center;verticalAlign=middle;whiteSpace=wrap;rounded=0;rotation=90;" vertex="1" parent="1">
          <mxGeometry x="611" y="312" width="60" height="30" as="geometry" />
        </mxCell>
        <mxCell id="wqrPw1n5rwPjWdhEKw8x-26" value="история участия в мероприятиях" style="rounded=0;whiteSpace=wrap;html=1;dashed=1;strokeWidth=2;" vertex="1" parent="1">
          <mxGeometry x="400" y="421" width="120" height="60" as="geometry" />
        </mxCell>
        <mxCell id="wqrPw1n5rwPjWdhEKw8x-29" value="Создает" style="text;html=1;align=center;verticalAlign=middle;whiteSpace=wrap;rounded=0;" vertex="1" parent="1">
          <mxGeometry x="442" y="241" width="60" height="30" as="geometry" />
        </mxCell>
        <mxCell id="wqrPw1n5rwPjWdhEKw8x-30" value="" style="endArrow=none;html=1;rounded=0;" edge="1" parent="1" target="wqrPw1n5rwPjWdhEKw8x-13">
          <mxGeometry width="50" height="50" relative="1" as="geometry">
            <mxPoint x="304" y="265" as="sourcePoint" />
            <mxPoint x="406" y="258" as="targetPoint" />
          </mxGeometry>
        </mxCell>
        <mxCell id="wqrPw1n5rwPjWdhEKw8x-33" value="" style="endArrow=none;html=1;rounded=0;entryX=0;entryY=0.5;entryDx=0;entryDy=0;" edge="1" parent="1" target="wqrPw1n5rwPjWdhEKw8x-14">
          <mxGeometry width="50" height="50" relative="1" as="geometry">
            <mxPoint x="309" y="385" as="sourcePoint" />
            <mxPoint x="538" y="359" as="targetPoint" />
          </mxGeometry>
        </mxCell>
        <mxCell id="wqrPw1n5rwPjWdhEKw8x-34" value="Записывается на" style="text;html=1;align=center;verticalAlign=middle;whiteSpace=wrap;rounded=0;" vertex="1" parent="1">
          <mxGeometry x="435" y="358" width="60" height="30" as="geometry" />
        </mxCell>
      </root>
    </mxGraphModel>
  </diagram>
</mxfile>
